<svg xmlns="http://www.w3.org/2000/svg" viewBox="0 0 1440 1440" height="40" width="40" xml:space="preserve"><defs><clipPath id="a" clipPathUnits="userSpaceOnUse"><path d="M0 1080h1080V0H0z"/></clipPath></defs><g clip-path="url(#a)" transform="matrix(1.33333 0 0 -1.33333 0 1440)"><path style="fill:#53b7d1;fill-opacity:1;fill-rule:nonzero;stroke:none" d="M0 0c14.864-25.974 48.313-56.351 74.548-39.524 53.625 34.391 52.88 67.576 24.074 96.208-33.47 33.267-54.458 27.592-81.153-.239C11.151 49.858 5.826 45.534-.516 33.248-5.101 24.365-6.038 10.551 0 0m57.76-93.144C19.213-93.382-33.043-41.972-47.866-8.568c-.021.047-.052.112-.054.121-.002.009.002.014 0 .023s-.289.654-.302.685c-7.515 17.9-9.266 32.902-1.024 52.511 12.58 29.934 75.923 99.485 121.636 83.848 32.67-11.176 166.827-92.981 38.081-196.548C94.047-81.14 77.385-93.021 57.76-93.144" transform="translate(194.689 521.132)"/><path style="fill:#141521;fill-opacity:1;fill-rule:nonzero;stroke:none" d="M0 0a2.232 2.232 0 0 0 2.195-1.197 2.41 2.41 0 0 0-.389-2.596l-42.738-63.509L7.4-136.203a2.195 2.195 0 0 0 .298-2.295 2.174 2.174 0 0 0-2.295-1.299h-28.157a7.762 7.762 0 0 0-3.394.599 5.668 5.668 0 0 0-2.193 2.197l-40.943 62.312v-61.709a3.002 3.002 0 0 0-3.395-3.396h-24.17a3 3 0 0 0-3.391 3.396V-3.59c0 2.395 1.13 3.593 3.391 3.593h24.17c2.261 0 3.391-1.198 3.395-3.593v-56.313L-31.14-2.386A5.514 5.514 0 0 0-26.546.011zm-153.584-117.831c5.064 0 9.728.101 13.985.302 4.258.2 8.655.633 13.18 1.298a2.467 2.467 0 0 0 2.998-2.796v-14.978c0-1.73-1.066-2.929-3.201-3.593a90.076 90.076 0 0 0-15.975-3.394 134.43 134.43 0 0 0-17.376-1.197 72.12 72.12 0 0 0-27.374 4.595 44.492 44.492 0 0 0-18.174 13.296 55.056 55.056 0 0 0-10.166 21.27 116.611 116.611 0 0 0-3.197 28.548v9.185a119.909 119.909 0 0 0 3.097 28.548 54.769 54.769 0 0 0 9.987 21.269 43.72 43.72 0 0 0 18.075 13.297 72.1 72.1 0 0 0 27.374 4.595 105.662 105.662 0 0 0 31.957-5.193 4.962 4.962 0 0 0 2.395-1.4c.432-.649.642-1.42.6-2.198v-14.379a2.465 2.465 0 0 0-2.995-2.797c-3.731.522-7.791.922-12.186 1.201-4.392.279-8.853.409-13.378.391a43.494 43.494 0 0 1-16.081-2.597 23.196 23.196 0 0 1-10.483-8.188 36.287 36.287 0 0 1-5.691-14.078 103.453 103.453 0 0 1-1.695-20.073v-6.191a98.285 98.285 0 0 1 1.791-20.069 35.408 35.408 0 0 1 5.896-13.981 24.006 24.006 0 0 1 10.686-8.087 43.635 43.635 0 0 1 15.971-2.596zm-93.465-18.575a3 3 0 0 0-3.394-3.395h-24.167a3.001 3.001 0 0 0-3.395 3.395V-3.598c0 2.395 1.13 3.593 3.395 3.594h24.167c2.268-.001 3.398-1.199 3.394-3.594zM-388.243-3.199c0 2.132.993 3.195 2.994 3.195h24.762a2.825 2.825 0 0 0 3.197-3.195v-103.24a14.842 14.842 0 0 1 1.997-8.603 9.594 9.594 0 0 1 8.188-2.796h47.317a2.824 2.824 0 0 0 3.196-3.195v-14.779c0-2.529-1.131-3.86-3.395-3.993-7.321-.664-15.707-1.23-25.163-1.697a596.904 596.904 0 0 0-29.361-.699 67.494 67.494 0 0 0-15.879 1.599 24.593 24.593 0 0 0-10.483 5.084 19.185 19.185 0 0 0-5.693 9.084 48.11 48.11 0 0 0-1.693 13.782zm-53.328-114.636c5.06 0 9.723.101 13.981.302 4.262.2 8.654.634 13.183 1.299a2.463 2.463 0 0 0 2.994-2.797v-14.977c0-1.728-1.062-2.929-3.196-3.594a90.044 90.044 0 0 0-15.979-3.394 134.57 134.57 0 0 0-17.372-1.197 72.116 72.116 0 0 0-27.374 4.595 44.504 44.504 0 0 0-18.175 13.296 55.103 55.103 0 0 0-10.189 21.27 116.462 116.462 0 0 0-3.193 28.548v9.186c-.114 9.605.925 19.19 3.098 28.547a54.693 54.693 0 0 0 9.986 21.27 43.73 43.73 0 0 0 18.076 13.296 72.074 72.074 0 0 0 27.374 4.595 105.574 105.574 0 0 0 31.953-5.193 4.947 4.947 0 0 0 2.398-1.4c.432-.649.642-1.42.6-2.198V-20.76a2.469 2.469 0 0 0-2.998-2.796c-3.731.521-7.791.921-12.182 1.2-4.393.279-8.853.409-13.382.391a43.522 43.522 0 0 1-16.078-2.596 23.21 23.21 0 0 1-10.483-8.189 36.144 36.144 0 0 1-5.69-14.078 102.912 102.912 0 0 1-1.7-20.073v-6.191a98.353 98.353 0 0 1 1.795-20.069c.932-5.03 2.944-9.8 5.893-13.981a24.025 24.025 0 0 1 10.685-8.087 43.663 43.663 0 0 1 15.975-2.596z" transform="translate(932.106 607.352)"/></g></svg>