<svg xmlns="http://www.w3.org/2000/svg" viewBox="0 0 1440 1440" height="40" width="40" xml:space="preserve"><defs><linearGradient id="f" spreadMethod="pad" gradientTransform="scale(-85.96171 85.96171) rotate(37.117 -11 -2.574)" gradientUnits="userSpaceOnUse" y2="0" x2="1" y1="0" x1="0"><stop offset="0" style="stop-opacity:1;stop-color:#9f8d45"/><stop offset=".329" style="stop-opacity:1;stop-color:#9f8d45"/><stop offset=".33" style="stop-opacity:1;stop-color:#9f8d45"/><stop offset=".561" style="stop-opacity:1;stop-color:#f7e6a1"/><stop offset=".627" style="stop-opacity:1;stop-color:#f7e6a1"/><stop offset=".788" style="stop-opacity:1;stop-color:#b5a257"/><stop offset="1" style="stop-opacity:1;stop-color:#b5a257"/></linearGradient><linearGradient id="k" spreadMethod="pad" gradientTransform="scale(-153.15684 153.15684) rotate(30.132 -8.395 -7.008)" gradientUnits="userSpaceOnUse" y2="0" x2="1" y1="0" x1="0"><stop offset="0" style="stop-opacity:1;stop-color:#9f8d45"/><stop offset=".329" style="stop-opacity:1;stop-color:#9f8d45"/><stop offset=".33" style="stop-opacity:1;stop-color:#9f8d45"/><stop offset=".561" style="stop-opacity:1;stop-color:#f7e6a1"/><stop offset=".627" style="stop-opacity:1;stop-color:#f7e6a1"/><stop offset=".788" style="stop-opacity:1;stop-color:#b5a257"/><stop offset="1" style="stop-opacity:1;stop-color:#b5a257"/></linearGradient><linearGradient id="c" spreadMethod="pad" gradientTransform="scale(-85.96171 85.96171) rotate(37.117 -11.15 -2.625)" gradientUnits="userSpaceOnUse" y2="0" x2="1" y1="0" x1="0"><stop offset="0" style="stop-opacity:1;stop-color:#9f8d45"/><stop offset=".329" style="stop-opacity:1;stop-color:#9f8d45"/><stop offset=".33" style="stop-opacity:1;stop-color:#9f8d45"/><stop offset=".561" style="stop-opacity:1;stop-color:#f7e6a1"/><stop offset=".627" style="stop-opacity:1;stop-color:#f7e6a1"/><stop offset=".788" style="stop-opacity:1;stop-color:#b5a257"/><stop offset="1" style="stop-opacity:1;stop-color:#b5a257"/></linearGradient><linearGradient id="d" spreadMethod="pad" gradientTransform="scale(-85.96171 85.96171) rotate(37.117 -10.414 -2.378)" gradientUnits="userSpaceOnUse" y2="0" x2="1" y1="0" x1="0"><stop offset="0" style="stop-opacity:1;stop-color:#9f8d45"/><stop offset=".329" style="stop-opacity:1;stop-color:#9f8d45"/><stop offset=".33" style="stop-opacity:1;stop-color:#9f8d45"/><stop offset=".561" style="stop-opacity:1;stop-color:#f7e6a1"/><stop offset=".627" style="stop-opacity:1;stop-color:#f7e6a1"/><stop offset=".788" style="stop-opacity:1;stop-color:#b5a257"/><stop offset="1" style="stop-opacity:1;stop-color:#b5a257"/></linearGradient><linearGradient id="e" spreadMethod="pad" gradientTransform="scale(-85.96171 85.96171) rotate(37.117 -10.997 -2.573)" gradientUnits="userSpaceOnUse" y2="0" x2="1" y1="0" x1="0"><stop offset="0" style="stop-opacity:1;stop-color:#9f8d45"/><stop offset=".329" style="stop-opacity:1;stop-color:#9f8d45"/><stop offset=".33" style="stop-opacity:1;stop-color:#9f8d45"/><stop offset=".561" style="stop-opacity:1;stop-color:#f7e6a1"/><stop offset=".627" style="stop-opacity:1;stop-color:#f7e6a1"/><stop offset=".788" style="stop-opacity:1;stop-color:#b5a257"/><stop offset="1" style="stop-opacity:1;stop-color:#b5a257"/></linearGradient><linearGradient id="b" spreadMethod="pad" gradientTransform="scale(389.36475 -389.36475) rotate(-17.065 -3.3 -5.407)" gradientUnits="userSpaceOnUse" y2="0" x2="1" y1="0" x1="0"><stop offset="0" style="stop-opacity:1;stop-color:#9f8d45"/><stop offset=".329" style="stop-opacity:1;stop-color:#9f8d45"/><stop offset=".33" style="stop-opacity:1;stop-color:#9f8d45"/><stop offset=".561" style="stop-opacity:1;stop-color:#f7e6a1"/><stop offset=".627" style="stop-opacity:1;stop-color:#f7e6a1"/><stop offset=".788" style="stop-opacity:1;stop-color:#b5a257"/><stop offset="1" style="stop-opacity:1;stop-color:#b5a257"/></linearGradient><linearGradient id="g" spreadMethod="pad" gradientTransform="scale(-120.58316 120.58316) rotate(27.943 -10.947 -7.616)" gradientUnits="userSpaceOnUse" y2="0" x2="1" y1="0" x1="0"><stop offset="0" style="stop-opacity:1;stop-color:#9f8d45"/><stop offset=".329" style="stop-opacity:1;stop-color:#9f8d45"/><stop offset=".33" style="stop-opacity:1;stop-color:#9f8d45"/><stop offset=".561" style="stop-opacity:1;stop-color:#f7e6a1"/><stop offset=".627" style="stop-opacity:1;stop-color:#f7e6a1"/><stop offset=".788" style="stop-opacity:1;stop-color:#b5a257"/><stop offset="1" style="stop-opacity:1;stop-color:#b5a257"/></linearGradient><linearGradient id="i" spreadMethod="pad" gradientTransform="scale(-125.68057 125.68057) rotate(32.05 -9.007 -4.384)" gradientUnits="userSpaceOnUse" y2="0" x2="1" y1="0" x1="0"><stop offset="0" style="stop-opacity:1;stop-color:#9f8d45"/><stop offset=".329" style="stop-opacity:1;stop-color:#9f8d45"/><stop offset=".33" style="stop-opacity:1;stop-color:#9f8d45"/><stop offset=".561" style="stop-opacity:1;stop-color:#f7e6a1"/><stop offset=".627" style="stop-opacity:1;stop-color:#f7e6a1"/><stop offset=".788" style="stop-opacity:1;stop-color:#b5a257"/><stop offset="1" style="stop-opacity:1;stop-color:#b5a257"/></linearGradient><clipPath id="h" clipPathUnits="userSpaceOnUse"><path d="M0 1080h1080V0H0z"/></clipPath><clipPath id="j" clipPathUnits="userSpaceOnUse"><path d="M0 1080h1080V0H0z"/></clipPath><clipPath id="a" clipPathUnits="userSpaceOnUse"><path d="M0 1080h1080V0H0z"/></clipPath></defs><g clip-path="url(#a)" transform="matrix(1.33333 0 0 -1.33333 0 1440)"><path style="fill:#fff;fill-opacity:1;fill-rule:nonzero;stroke:none" d="M0 0h-740c-16.568 0-30 13.431-30 30v428.196c0 16.568 13.432 30 30 30H0c16.568 0 30-13.432 30-30V30C30 13.431 16.568 0 0 0" transform="translate(910 295.902)"/><path style="fill:#3f515c;fill-opacity:1;fill-rule:nonzero;stroke:none" d="M0 0c85.358 0 170.717-.301 256.072.196 23.436.137 46.884.265 70.324.563 2 .025 3.981-.262 5.968-.436 9.529-.834 12.006-8.451 13.923-16.48 20.161-84.427 13.757-174.347-22.059-253.764-9.545-21.166-21.21-41.107-34.105-60.335-10.131-15.106-21.172-29.538-33.248-43.197-9.009-10.19-18.482-19.923-28.526-29.014-18.908-17.111-38.981-32.721-62.376-43.442-12.407-5.686-25.421-9.25-38.958-11.153-13.502-1.899-27.056-1.879-40.603-1.585-74.838 1.623-149.683.36-224.524.696-38.742.175-77.485.044-116.228-.004-4.047-.005-8.043.324-11.86 1.566-7.94 2.584-12.752 9.538-13.205 18.772-.128 2.619-.091 5.247-.091 7.871-.004 134.288-.005 268.576.009 402.863 0 3.844.075 7.651.83 11.496 1.81 9.212 9.132 14.699 18.419 15.262 3.231.196 6.481.107 9.722.107C-167.011-.013-83.505-.014 0 0" transform="translate(435.575 768.505)"/></g><path style="fill:url(#b);stroke:none" d="M798.288 763.137c.258-1.355.803-2.655 1.197-3.985 6.551-22.092 10.807-44.851 12.833-67.803 6.318-71.642-9.872-144.079-42.095-208.078-37.082-73.649-93.978-133.963-169.164-168.531-1.448-.666-3.978-.381-3.517-2.724.432-2.2 2.804-1.381 4.359-1.381 49.557-.018 99.113-.071 148.668.127 53.771.215 118.784 27.402 149.557 72.957 15.636 23.148 18.49 49.419 7.403 75.036-.299.692-.667 1.397-1.544 1.414-.743-.157-1.032-.724-1.318-1.264-4.752-8.999-9.624-17.918-15.055-26.54-22.073-35.049-53.877-64.662-93.797-77.777a146.683 146.683 0 0 0-37.641-7.098c2.16.731 4.336 1.474 6.516 2.204 11.559 3.874 22.79 8.403 33.598 14.176 1.646.879 3.275 1.791 4.889 2.73 69.985 40.754 113.582 125.021 120.458 203.967 2.904 33.351-1.638 78.474-28.447 102.232a19.213 19.213 0 0 1-7.468 4.132c-.922-1.138-.65-2.259-.683-3.312-.214-7.078-.258-14.149-.665-21.237-4.004-69.632-24.4-137.138-59.044-197.297-9.607-16.681-20.873-31.984-36.02-44.088-3.558-2.843-7.334-5.502-11.985-6.763.883 1.252 1.725 2.534 2.655 3.751 3.457 4.526 7.165 8.879 10.374 13.575 30.11 44.055 50.993 94.67 63.361 146.471 9.501 39.797 17.498 84.858 9.675 125.541-4.176 21.72-11.13 47.561-29.238 61.813-9.569 7.533-20.31 12.042-32.48 13.232-.645.063-1.229.097-1.756.097-3.45 0-4.408-1.45-3.626-5.577" transform="matrix(1.33333 0 0 -1.33333 0 1440)"/><path style="fill:url(#c);stroke:none" d="M325.988 589.576c-.349-.429-1.097-1.162-.876-1.793.221-.626 1.578-.481 2.15-.766.978-.49 1.372-1.473 1.342-2.517-.036-1.215-.049-12.869-.095-28.927-14.134.082-28.266.166-42.399.25a85.999 85.999 0 0 0 1.392 23.492 86.818 86.818 0 0 0 1.166 5.061c.482 1.842 1.809 4.102 1.668 6.028-.018.258-.079.523-.242.725-.38.47-1.108.393-1.694.243-3.599-.924-7.098-2.844-9.855-5.329-.847-.764-3.116-2.918-5.172-6.6-5.441-9.744-5.867-23.543-5.867-23.543-.275-8.923-.627-27.003 8.878-45.775 0 0 6.662-13.159 16.188-16.401 1.882-.642 2.393-.217 2.555-.008.743.951-.85 2.589-1.321 3.315a29.575 29.575 0 0 0-2.249 4.229c-1.322 3.029-2.197 6.236-2.85 9.469-1.99 9.841-3.277 19.799-3.002 29.848h42.804v-37.771c0-2.504 1.021-4.909 3.331-6.085 1.391-.709 2.965-.96 4.515-1.151 2.713-.337 5.481-.525 8.164-.009 1.571.301 3.138.869 4.31 1.956 1.887 1.754 1.916 4.126 1.916 6.515 0 18.971.178 37.943.154 56.914-.006 4.706-.038 9.411-.095 14.116-.077 6.388-2.062 12.823-7.704 16.407-2.437 1.548-5.229 2.396-7.959 2.396-3.424 0-6.749-1.333-9.153-4.289" transform="matrix(1.33333 0 0 -1.33333 0 1440)"/><path style="fill:url(#d);stroke:none" d="M259.202 566.59c-5.625-6.723-6.069-14.571-6.342-22.374-.639-18.315 6.047-31.346 7.545-34.148 3.364-6.29 7.016-10.432 8.095-11.625a56.054 56.054 0 0 1 10.663-9.16 32.268 32.268 0 0 0-9.225 3.859 32.293 32.293 0 0 0-7.179 6.022 61.237 61.237 0 0 0-4.824 7.14c-2.746 4.76-6.168 10.692-7.912 18.643-.491 2.233-.821 4.502-1.699 4.592-1.268.129-2.701-4.391-3.01-5.366-1.001-3.153-1.254-6.059-1.236-7.603.073-5.996 4.567-17.67 15.324-25.588 0 0 9.402-6.922 25.482-7.455.656-.022 4.552.07 7.44 2.138 1.421 1.016 2.361 2.575-.162 3.313-17.275 5.054-24.013 23.349-27.702 39.22-.804 3.458-1.57 6.865-2.027 10.4-1.379 10.669-1.321 22.403 2.14 32.696-2.636-.592-3.83-2.861-5.371-4.704" transform="matrix(1.33333 0 0 -1.33333 0 1440)"/><path style="fill:url(#e);stroke:none" d="M264.573 571.294c.022.004.04.014.062.019l-.042.042-.02-.061" transform="matrix(1.33333 0 0 -1.33333 0 1440)"/><path style="fill:url(#f);stroke:none" d="m264.593 571.355.042-.042.201.277s-.244-.234-.243-.235" transform="matrix(1.33333 0 0 -1.33333 0 1440)"/><path style="fill:url(#g);stroke:none" d="M564.416 593.641c-.778-.01-1.556-.056-2.334-.056-1.078-.009-2.156-.028-3.235-.037-.735-.007-1.472-.005-2.209-.004-1.362.002-2.727.005-4.086-.043-1.883-.073-3.642-.713-4.977-2.121-1.592-1.667-2.855-4.047-4.96-9.151-.353-.843-.627-1.557-.822-2.048-.796-1.732-12.094-26.205-16.354-33.291-.31-.528-1.008-1.658-1.875-1.621-.866-.037-1.565 1.093-1.875 1.621-4.26 7.086-15.559 31.559-16.354 33.291-.195.491-.469 1.205-.822 2.048-2.104 5.104-3.369 7.484-4.96 9.151-1.335 1.408-3.094 2.048-4.977 2.121-1.36.048-2.724.045-4.086.043-.737-.001-1.473-.003-2.209.004-1.078.009-2.157.028-3.235.037-.778 0-1.556.046-2.334.056-1.123.009-2.175-.352-3.13-.954-1.768-1.14-2.528-2.807-2.802-3.437-.513-1.159-.61-2.158-.69-2.575a41.483 41.483 0 0 1-.787-9.384c-.821-25.186-1.644-50.364-2.466-75.549a6.12 6.12 0 0 1 .336-1.649c1.291-3.687 5.967-5.503 9.574-5.548 3.643-.047 7.992 1.675 9.53 5.021.018.037.301.685.451 1.406 1.07 5.132 1.689 46.437 1.918 64.435 9.858-20.203 17.575-35.302 21.139-41.962.724-1.371 2.271-4.122 5.118-5.058a8.651 8.651 0 0 1 2.661-.435c.928.01 1.839.157 2.661.435 2.847.936 4.393 3.687 5.119 5.058 3.563 6.66 11.28 21.759 21.137 41.962.23-17.998.849-59.303 1.919-64.435a7.762 7.762 0 0 1 .451-1.406c1.538-3.346 5.888-5.068 9.53-5.021 3.607.045 8.284 1.861 9.574 5.548.231.648.31 1.232.336 1.649l-2.466 75.549a41.425 41.425 0 0 1-.787 9.384c-.08.417-.177 1.416-.689 2.575-.275.63-1.034 2.297-2.803 3.437-.944.595-1.981.954-3.089.954h-.041" transform="matrix(1.33333 0 0 -1.33333 0 1440)"/><g clip-path="url(#h)" transform="matrix(1.33333 0 0 -1.33333 0 1440)"><path style="fill:#fff;fill-opacity:1;fill-rule:nonzero;stroke:none" d="M0 0c.223-.027.436-.074.639-.13 0-.018-.009-.027-.018-.046C.454-.454-.129-.296 0 0" transform="translate(396.191 517.665)"/></g><path style="fill:url(#i);stroke:none" d="M434.48 590.791c-1.412-1.569-1.796-3.422-1.916-4.541l-.177-55.756a19.776 19.776 0 0 0-1.986-9.021c-1.939-3.984-4.688-6.236-5.394-6.794 0 0-4.68-3.696-10.801-4.193a31.775 31.775 0 0 0-1.255-.071c-.161-.006-.322-.01-.483-.011-.162.001-.322.005-.482.011-.001 0-.644.022-1.257.071-6.12.497-10.801 4.193-10.801 4.193-.705.558-3.454 2.81-5.392 6.794a19.767 19.767 0 0 0-1.987 9.021l-.177 55.756c-.12 1.119-.504 2.972-1.916 4.541-2.542 2.823-6.599 2.711-9.791 2.624-3.363-.093-6.867-.188-8.916-2.779-1.609-2.033-1.482-4.543-1.353-5.635v-58.356c0-5.43 1.561-12.625 6.766-19.454 5.848-7.671 14.155-11.089 16.717-12.042 5.188-1.927 10.297-2.467 11.861-2.624a51.595 51.595 0 0 1 6.728-.231 51.61 51.61 0 0 1 6.729.231c1.563.157 6.671.697 11.86 2.624 2.561.953 10.868 4.371 16.717 12.042 5.205 6.829 6.766 14.024 6.766 19.454v58.356c.129 1.092.255 3.602-1.353 5.635-2.049 2.591-5.552 2.686-8.916 2.779a64.07 64.07 0 0 1-1.795.032c-2.81 0-5.913-.342-7.996-2.656" transform="matrix(1.33333 0 0 -1.33333 0 1440)"/><g clip-path="url(#j)" transform="matrix(1.33333 0 0 -1.33333 0 1440)"><path style="fill:#fff;fill-opacity:1;fill-rule:nonzero;stroke:none" d="M0 0c.177-.026.347-.077.507-.149a9.58 9.58 0 0 1-.294-.179z" transform="translate(400.96 493.578)"/></g><path style="fill:url(#k);stroke:none" d="M606.509 586.064a46.002 46.002 0 0 1-16.405-23.51c-8.05-26.9 4.057-61.219 33.042-68.806 4.677-1.223 9.485-1.741 14.283-1.611 4.798-.13 9.605.388 14.283 1.611 28.984 7.587 41.091 41.906 33.042 68.806a46.014 46.014 0 0 1-16.405 23.51c-8.874 6.66-19.869 10.153-30.92 10.412-11.051-.259-22.046-3.752-30.92-10.412m5.113-53.54c-2.918 12.273-2.381 26.723 4.492 37.672 4.762 7.587 12.857 12.08 21.315 12.144 8.457-.064 16.552-4.557 21.314-12.144 6.874-10.949 7.41-25.399 4.492-37.672-3.028-12.737-11.486-26.428-25.806-26.576-14.32.148-22.778 13.839-25.807 26.576" transform="matrix(1.33333 0 0 -1.33333 0 1440)"/></svg>