<svg width="24" height="24" fill="none" xmlns="http://www.w3.org/2000/svg"><path d="M21.962 17.616c.335.479.37 1.233.013 1.817-.317.522-2.22 2.526-2.84 3.17-.536.558-1.26 1.118-1.973 1.118H2.234c-2.017 0-2.14-.681-2.14-2.224v-6.254c0-1.575.467-2.03 1.845-2.03h15.223c.713 0 1.347.363 2.076 1.102.618.627 2.467 2.933 2.724 3.3z" fill="#3CC"/><path d="M3.48 15.633v-.04c0-.202-.017-.4-.348-.4H1.884c-.29 0-.308.16-.308.408v1.652c.608-.865 1.28-1.267 1.903-1.62zM11.847 21.605v-.09h.001v-3.978c0-1.668-.736-2.502-2.207-2.502a2.2 2.2 0 0 0-1.157.316c-.35.21-.687.504-1.01.882-.158-.41-.398-.712-.718-.907-.32-.194-.734-.29-1.243-.29-.59 0-1.274.205-1.76.603-.108.109-2.178 1.734-2.178 3.403v2.546c0 .082-.04.39.306.39h1.298c.404 0 .365-.264.365-.373v-4.12c.219-.29.667-1.006 1.394-1.006.28 0 .48.094.603.283.124.188.186.504.186.947v3.218h-.002v.661c0 .081-.04.389.306.389h1.283c.404 0 .364-.264.364-.372v-.09h.002v-4.03c.235-.29.703-1.006 1.394-1.006.285 0 .49.094.616.283.125.188.188.504.188.947v3.218h-.001v.661c0 .081-.04.389.306.389h1.3c.404 0 .364-.264.364-.372z" fill="#fff"/><path fill-rule="evenodd" clip-rule="evenodd" d="M16.062 21.919c1.37 0 2.477-.692 2.939-1.931.03-.083-.048-.255-.225-.255h-1.085s-.266-.012-.395.2c-.3.488-.642.737-1.22.737-.95 0-1.487-.6-1.512-1.712h4.212c.332 0 .41-.233.4-.498-.08-2.073-1.323-3.36-3.176-3.36-1.874 0-3.235 1.448-3.235 3.447 0 2.023 1.311 3.372 3.297 3.372zm-1.501-4.082c.1-.9.65-1.45 1.437-1.45.886 0 1.31.663 1.386 1.45h-2.823z" fill="#fff"/><path fill-rule="evenodd" clip-rule="evenodd" d="M7.753 1.638a2.445 2.445 0 0 0-.638-.68 3.16 3.16 0 0 0-.828-.414 4.706 4.706 0 0 0-1.01-.209C4.911.298 4.517.279 4.095.279H.637C.326.28 0 .483 0 .867v5.591c.438.932 1.292 1.921 2.262 2.394V7.743c0-.585.442-.716.625-.716h1.022c1.408 0 2.483-.295 3.225-.884.741-.59 1.112-1.465 1.112-2.625 0-.353-.039-.685-.116-.996a3.096 3.096 0 0 0-.377-.884zM5.737 4.51a1.209 1.209 0 0 1-.511.48c-.215.105-.461.17-.74.195a9.79 9.79 0 0 1-.866.037h-.972c-.237 0-.387-.193-.387-.478V2.46c0-.257.168-.364.369-.364h.99c.323 0 .625.01.908.028.282.018.527.077.735.177.208.099.37.25.489.456.118.204.177.493.177.865 0 .378-.064.675-.192.889zM.001 7.778c.48.503 1.195 1.01 2.262 1.435v1.264s.05.44-.363.44H.39c-.43 0-.39-.44-.39-.44V7.778zm23.645-4.556h-1.354c-.275 0-.456.115-.566.417-.11.301-1.544 4.287-1.544 4.287l-1.48-4.205c-.108-.303-.286-.5-.606-.5h-1.244c-.439 0-.439.344-.384.48.044.111 1.747 4.767 2.396 6.54l.082.221c.094.25.133.356.137.48.005.155-.154.48-.263.668-.054.092-.112.17-.172.24 1.272-.379 2.738-1.757 3.497-3.25.75-2.08 1.738-4.829 1.78-4.97.07-.227.069-.408-.279-.408zm-6.332 9c.117.015.234.022.352.024 1.704.165 3.465-1.5 3.838-1.875l-.197.547c-.174.46-.356.88-.545 1.261-.189.382-.404.71-.646.987a2.674 2.674 0 0 1-.838.646c-.317.155-.69.233-1.117.233a4.45 4.45 0 0 1-.96-.092l-.013-.003c-.107-.023-.284-.062-.284-.445v-1.043c0-.233.267-.26.41-.24zm-1.682-7.763a1.812 1.812 0 0 0-.297-.48 2.088 2.088 0 0 0-.42-.358 3.08 3.08 0 0 0-.53-.275c-.18-.07-.374-.13-.581-.177a4.712 4.712 0 0 0-.684-.097 11.422 11.422 0 0 0-.838-.028c-2.051 0-3.22.646-3.504 1.94-.093.4.305.424.305.424h1.262c.275 0 .31-.073.407-.27l.068-.133c.06-.164.159-.3.299-.407.242-.186.605-.279 1.089-.279.465 0 .803.09 1.014.27.211.18.335.453.372.819 0 .425-.133.708-.647.708-1.256-.045-2.605.097-3.366.53-.76.435-1.19 1.285-1.19 2.197 0 .372.067.698.2.977.134.279.32.513.56.702.238.19.522.331.85.424.33.093.69.14 1.08.14.546 0 1.03-.069 1.448-.205.418-.136 1.067-.586 1.15-.652v.24c0 .237.072.45.356.45h1.467c.297 0 .363-.213.363-.473V5.939c0-.316-.018-.596-.056-.837a2.645 2.645 0 0 0-.177-.643zM11.9 9.664c1.353 0 1.732-.785 1.732-.785v-.887c0-.247-.15-.604-.717-.618-.568-.013-1.325.095-1.704.284-.378.19-.567.513-.567.973 0 .354.116.614.349.782.233.168.535.251.907.251z" fill="#333"/></svg>