<svg width="30" height="40" fill="none" xmlns="http://www.w3.org/2000/svg"><path d="M.5 36V4A3.5 3.5 0 0 1 4 .5h13.9a3.5 3.5 0 0 1 2.414.966l8.1 7.714a3.5 3.5 0 0 1 1.086 2.534V36a3.5 3.5 0 0 1-3.5 3.5H4A3.5 3.5 0 0 1 .5 36z" fill="#fff" stroke="#E5E9EB"/><path d="M5.772 24v-7.273h3.004c.544 0 1.014.107 1.41.32.397.21.704.505.92.884.215.377.322.814.322 1.314 0 .502-.11.941-.33 1.317-.218.375-.529.665-.934.87-.405.207-.885.31-1.441.31H6.869v-1.386h1.527c.265 0 .486-.046.664-.138a.95.95 0 0 0 .408-.387c.093-.168.139-.363.139-.586 0-.225-.046-.419-.139-.582a.93.93 0 0 0-.408-.384 1.476 1.476 0 0 0-.664-.135h-.867V24H5.772zm9.151 0h-2.688v-7.273h2.685c.74 0 1.379.146 1.914.437.537.289.951.706 1.243 1.25.29.542.436 1.19.436 1.946 0 .758-.145 1.409-.436 1.953a2.985 2.985 0 0 1-1.24 1.254c-.537.289-1.175.433-1.914.433zm-.93-1.499h.863c.407 0 .751-.068 1.033-.206.284-.14.498-.365.643-.678.147-.315.22-.734.22-1.257 0-.523-.073-.94-.22-1.25a1.358 1.358 0 0 0-.65-.675c-.284-.14-.634-.21-1.051-.21h-.838v4.276zM19.48 24v-7.273h4.964v1.428h-3.206v1.491h2.89v1.431h-2.89V24H19.48z" fill="#F76659"/></svg>