<svg xmlns="http://www.w3.org/2000/svg" viewBox="0 0 562.667 801.333" height="29" width="29" xml:space="preserve"><path style="fill:#203e7a;fill-opacity:1;fill-rule:evenodd;stroke:none" d="M4084.63 3493.78c0-740.09-169.12-1291.62-507.07-1650.98-337.96-359.37-860.15-538.97-1564.14-538.97-657.74 0-1156.74 179.66-1497.022 538.97C176.121 2202.11 6.012 2744.01 6.051 3468.5v2430.7c.16 56.94 46.27 103.07 103.211 103.27H1301.89c56.96-.17 103.1-46.31 103.27-103.27V3415.37c0-295.83 54.72-523.49 166.09-684.11 200.5-265.81 578.52-318.74 844.33-118.25a602.944 602.944 0 0 1 107.13 103.97c108.86 150.7 163.11 372.8 162.76 666.27v465.14h1399.16v-354.61" transform="matrix(.13333 0 0 -.13333 0 801.333)"/><path style="fill:#203e7a;fill-opacity:1;fill-rule:evenodd;stroke:none" d="M3976.48 4120.07H2685.59v1774.24c.16 59.66 48.48 107.99 108.14 108.15h193.23c.42-605.8 491.63-1096.66 1097.43-1096.66h.3v-785.73h-108.21" transform="matrix(.13333 0 0 -.13333 0 801.333)"/><path style="fill:#f4821f;fill-opacity:1;fill-rule:evenodd;stroke:none" d="M3261.91 6002.46h714.63c59.67-.16 108-48.48 108.15-108.14v-715.53c-454.4 0-822.78 368.37-822.78 822.78v.89" transform="matrix(.13333 0 0 -.13333 0 801.333)"/><path style="fill:#233c7e;fill-opacity:1;fill-rule:evenodd;stroke:none" d="M3809.62 229.711h-94.11v324.332h94.11c83.61 6.168 156.41-56.621 162.58-140.23.54-7.418.54-14.868 0-22.29 3.62-85.718-62.92-158.132-148.62-161.75a155.18 155.18 0 0 0-14.26.059zm0-97.207c162.58 0 275.37 102.68 275.37 259.019 0 156.329-113.03 259.782-275.37 259.782h-204.58V132.504zM3127.71 414.07h-115.89v139.973h115.52c38.66 4.07 73.3-23.973 77.36-62.617 4.07-38.653-23.97-73.293-62.62-77.356-4.9-.515-9.83-.515-14.74 0zM3395.1 2.46l-190.36 327.603c70.24 16.937 118.15 81.921 113.56 154.019 3.4 89.168-66.12 164.211-155.29 167.609-6.32.25-12.65.11-18.95-.386h-242.77V132.504h110.47v184.418h80.91l175.6-314.34zm-933.97 315.294h-161.8l80.9 223.258zm188.23-185.129-199.89 518.797h-138.42l-200.72-518.797h126l32.66 87.93h222.49l31.88-87.93zm-965.02-9.344c90.69-2.105 174.76 47.332 217.01 127.602l-95.18 45.867c-23.6-45.816-70.59-74.84-122.13-75.43-94.08 4.66-166.57 84.703-161.92 178.782 4.34 87.562 74.35 157.582 161.92 161.91 51.44-.91 98.28-29.84 122.13-75.43l95.18 46.691c-42.23 80.211-126.42 129.391-217.01 126.782-148.21 4.425-271.95-112.129-276.38-260.332-4.42-148.207 112.13-271.942 260.34-276.379a280.32 280.32 0 0 1 16.04 0zm-527.9 9.344v97.207H905.992l245.028 333.129v88.691H761.313v-97.257h245.037L761.313 222.273v-89.23zm-916.131-9.344c157.894 0 234.152 87.922 234.152 217.024v311.117H361.43V343.395c0-67.231-54.5-121.754-121.739-121.754-67.242 0-121.738 54.523-121.738 121.754v308.027H5.93V339.344c0-127.539 76.199-216.242 234.148-216.242l.231.179M4219.14 661.176v-1.25c.03-53.348-43.19-96.625-96.55-96.668-53.36-.031-96.64 43.191-96.67 96.551-.03 53.351 43.19 96.629 96.55 96.668H4219.07l.07-95.301" transform="matrix(.13333 0 0 -.13333 0 801.333)"/></svg>